<svg xmlns="http://www.w3.org/2000/svg" viewBox="0 0 100 100" role="img" aria-label="VARK">
  <rect width="100" height="100" fill="#ffffff"/>
  <path d="M834 0H535L14 1409H322L612 504Q639 416 686 238L707 324L758 504L1047 1409H1352Z" fill="#2546e0" transform="translate(17.3044 45.4247) scale(0.023013 -0.023013)"/>
  <path d="M1133 0 1008 360H471L346 0H51L565 1409H913L1425 0ZM739 1192 733 1170Q723 1134 709.0 1088.0Q695 1042 537 582H942L803 987L760 1123Z" fill="#2546e0" transform="translate(48.6601 45.4247) scale(0.023013 -0.023013)"/>
  <path d="M1105 0 778 535H432V0H137V1409H841Q1093 1409 1230.0 1300.5Q1367 1192 1367 989Q1367 841 1283.0 733.5Q1199 626 1056 592L1437 0ZM1070 977Q1070 1180 810 1180H432V764H818Q942 764 1006.0 820.0Q1070 876 1070 977Z" fill="#2546e0" transform="translate(16.0042 86.4247) scale(0.023013 -0.023013)"/>
  <path d="M1112 0 606 647 432 514V0H137V1409H432V770L1067 1409H1411L809 813L1460 0Z" fill="#2546e0" transform="translate(49.9603 86.4247) scale(0.023013 -0.023013)"/>
</svg>